<svg width="320" height="46" viewBox="0 0 320 46" fill="none" xmlns="http://www.w3.org/2000/svg">
<g filter="url(#filter0_d_3_56)">
<path d="M57.616 2.4L46.48 36H39.856L31.552 11.136L23.104 36H16.432L5.296 2.4H11.776L20.128 27.936L28.816 2.4H34.576L43.072 28.08L51.664 2.4H57.616ZM65.0995 2.4H71.3395V36H65.0995V2.4ZM96.6516 2.4C99.5636 2.4 102.092 2.88 104.236 3.84C106.412 4.8 108.076 6.176 109.228 7.968C110.38 9.76 110.956 11.888 110.956 14.352C110.956 16.784 110.38 18.912 109.228 20.736C108.076 22.528 106.412 23.904 104.236 24.864C102.092 25.824 99.5636 26.304 96.6516 26.304H89.0676V36H82.8276V2.4H96.6516ZM96.3636 21.024C99.0836 21.024 101.148 20.448 102.556 19.296C103.964 18.144 104.668 16.496 104.668 14.352C104.668 12.208 103.964 10.56 102.556 9.408C101.148 8.256 99.0836 7.68 96.3636 7.68H89.0676V21.024H96.3636ZM146.137 36.48C143.545 36.48 141.033 36.112 138.601 35.376C136.201 34.64 134.297 33.664 132.889 32.448L135.049 27.6C136.425 28.688 138.105 29.584 140.089 30.288C142.105 30.96 144.121 31.296 146.137 31.296C148.633 31.296 150.489 30.896 151.705 30.096C152.953 29.296 153.577 28.24 153.577 26.928C153.577 25.968 153.225 25.184 152.521 24.576C151.849 23.936 150.985 23.44 149.929 23.088C148.873 22.736 147.433 22.336 145.609 21.888C143.049 21.28 140.969 20.672 139.369 20.064C137.801 19.456 136.441 18.512 135.289 17.232C134.169 15.92 133.609 14.16 133.609 11.952C133.609 10.096 134.105 8.416 135.097 6.912C136.121 5.376 137.641 4.16 139.657 3.264C141.705 2.368 144.201 1.92 147.145 1.92C149.193 1.92 151.209 2.176 153.193 2.688C155.177 3.2 156.889 3.936 158.329 4.896L156.361 9.744C154.889 8.88 153.353 8.224 151.753 7.776C150.153 7.328 148.601 7.104 147.097 7.104C144.633 7.104 142.793 7.52 141.577 8.352C140.393 9.184 139.801 10.288 139.801 11.664C139.801 12.624 140.137 13.408 140.809 14.016C141.513 14.624 142.393 15.104 143.449 15.456C144.505 15.808 145.945 16.208 147.769 16.656C150.265 17.232 152.313 17.84 153.913 18.48C155.513 19.088 156.873 20.032 157.993 21.312C159.145 22.592 159.721 24.32 159.721 26.496C159.721 28.352 159.209 30.032 158.185 31.536C157.193 33.04 155.673 34.24 153.625 35.136C151.577 36.032 149.081 36.48 146.137 36.48ZM174.656 7.68H163.52V2.4H192.032V7.68H180.896V36H174.656V7.68ZM199.115 2.4H205.355V36H199.115V2.4ZM223.659 7.68H212.523V2.4H241.035V7.68H229.899V36H223.659V7.68ZM263.201 36.48C259.809 36.48 256.737 35.744 253.985 34.272C251.265 32.768 249.121 30.704 247.553 28.08C246.017 25.456 245.249 22.496 245.249 19.2C245.249 15.904 246.033 12.944 247.601 10.32C249.169 7.696 251.313 5.648 254.033 4.176C256.785 2.672 259.857 1.92 263.249 1.92C266.001 1.92 268.513 2.4 270.785 3.36C273.057 4.32 274.977 5.712 276.545 7.536L272.513 11.328C270.081 8.704 267.089 7.392 263.537 7.392C261.233 7.392 259.169 7.904 257.345 8.928C255.521 9.92 254.097 11.312 253.073 13.104C252.049 14.896 251.537 16.928 251.537 19.2C251.537 21.472 252.049 23.504 253.073 25.296C254.097 27.088 255.521 28.496 257.345 29.52C259.169 30.512 261.233 31.008 263.537 31.008C267.089 31.008 270.081 29.68 272.513 27.024L276.545 30.864C274.977 32.688 273.041 34.08 270.737 35.04C268.465 36 265.953 36.48 263.201 36.48ZM314.781 2.4V36H308.541V21.6H291.165V36H284.925V2.4H291.165V16.272H308.541V2.4H314.781Z" fill="black"/>
</g>
<defs>
<filter id="filter0_d_3_56" x="0.295898" y="0.919922" width="319.484" height="44.5605" filterUnits="userSpaceOnUse" color-interpolation-filters="sRGB">
<feFlood flood-opacity="0" result="BackgroundImageFix"/>
<feColorMatrix in="SourceAlpha" type="matrix" values="0 0 0 0 0 0 0 0 0 0 0 0 0 0 0 0 0 0 127 0" result="hardAlpha"/>
<feOffset dy="4"/>
<feGaussianBlur stdDeviation="2.5"/>
<feComposite in2="hardAlpha" operator="out"/>
<feColorMatrix type="matrix" values="0 0 0 0 0 0 0 0 0 0 0 0 0 0 0 0 0 0 0.5 0"/>
<feBlend mode="normal" in2="BackgroundImageFix" result="effect1_dropShadow_3_56"/>
<feBlend mode="normal" in="SourceGraphic" in2="effect1_dropShadow_3_56" result="shape"/>
</filter>
</defs>
</svg>
