<svg width="414" height="46" viewBox="0 0 414 46" fill="none" xmlns="http://www.w3.org/2000/svg">
<rect width="414" height="46" fill="#FF7323"/>
<g filter="url(#filter0_d_56_343)">
<path d="M161.648 19.6L158.864 28H157.208L155.132 21.784L153.02 28H151.352L148.568 19.6H150.188L152.276 25.984L154.448 19.6H155.888L158.012 26.02L160.16 19.6H161.648ZM162.919 19.6H164.479V28H162.919V19.6ZM170.207 19.6C170.935 19.6 171.567 19.72 172.103 19.96C172.647 20.2 173.063 20.544 173.351 20.992C173.639 21.44 173.783 21.972 173.783 22.588C173.783 23.196 173.639 23.728 173.351 24.184C173.063 24.632 172.647 24.976 172.103 25.216C171.567 25.456 170.935 25.576 170.207 25.576H168.311V28H166.751V19.6H170.207ZM170.135 24.256C170.815 24.256 171.331 24.112 171.683 23.824C172.035 23.536 172.211 23.124 172.211 22.588C172.211 22.052 172.035 21.64 171.683 21.352C171.331 21.064 170.815 20.92 170.135 20.92H168.311V24.256H170.135ZM181.378 28.12C180.73 28.12 180.102 28.028 179.494 27.844C178.894 27.66 178.418 27.416 178.066 27.112L178.606 25.9C178.95 26.172 179.37 26.396 179.866 26.572C180.37 26.74 180.874 26.824 181.378 26.824C182.002 26.824 182.466 26.724 182.77 26.524C183.082 26.324 183.238 26.06 183.238 25.732C183.238 25.492 183.15 25.296 182.974 25.144C182.806 24.984 182.59 24.86 182.326 24.772C182.062 24.684 181.702 24.584 181.246 24.472C180.606 24.32 180.086 24.168 179.686 24.016C179.294 23.864 178.954 23.628 178.666 23.308C178.386 22.98 178.246 22.54 178.246 21.988C178.246 21.524 178.37 21.104 178.618 20.728C178.874 20.344 179.254 20.04 179.758 19.816C180.27 19.592 180.894 19.48 181.63 19.48C182.142 19.48 182.646 19.544 183.142 19.672C183.638 19.8 184.066 19.984 184.426 20.224L183.934 21.436C183.566 21.22 183.182 21.056 182.782 20.944C182.382 20.832 181.994 20.776 181.618 20.776C181.002 20.776 180.542 20.88 180.238 21.088C179.942 21.296 179.794 21.572 179.794 21.916C179.794 22.156 179.878 22.352 180.046 22.504C180.222 22.656 180.442 22.776 180.706 22.864C180.97 22.952 181.33 23.052 181.786 23.164C182.41 23.308 182.922 23.46 183.322 23.62C183.722 23.772 184.062 24.008 184.342 24.328C184.63 24.648 184.774 25.08 184.774 25.624C184.774 26.088 184.646 26.508 184.39 26.884C184.142 27.26 183.762 27.56 183.25 27.784C182.738 28.008 182.114 28.12 181.378 28.12ZM187.908 20.92H185.124V19.6H192.252V20.92H189.468V28H187.908V20.92ZM193.423 19.6H194.983V28H193.423V19.6ZM198.959 20.92H196.175V19.6H203.303V20.92H200.519V28H198.959V20.92ZM208.245 28.12C207.397 28.12 206.629 27.936 205.941 27.568C205.261 27.192 204.725 26.676 204.333 26.02C203.949 25.364 203.757 24.624 203.757 23.8C203.757 22.976 203.953 22.236 204.345 21.58C204.737 20.924 205.273 20.412 205.953 20.044C206.641 19.668 207.409 19.48 208.257 19.48C208.945 19.48 209.573 19.6 210.141 19.84C210.709 20.08 211.189 20.428 211.581 20.884L210.573 21.832C209.965 21.176 209.217 20.848 208.329 20.848C207.753 20.848 207.237 20.976 206.781 21.232C206.325 21.48 205.969 21.828 205.713 22.276C205.457 22.724 205.329 23.232 205.329 23.8C205.329 24.368 205.457 24.876 205.713 25.324C205.969 25.772 206.325 26.124 206.781 26.38C207.237 26.628 207.753 26.752 208.329 26.752C209.217 26.752 209.965 26.42 210.573 25.756L211.581 26.716C211.189 27.172 210.705 27.52 210.129 27.76C209.561 28 208.933 28.12 208.245 28.12ZM220.539 19.6V28H218.979V24.4H214.635V28H213.075V19.6H214.635V23.068H218.979V19.6H220.539ZM229.731 28.036C228.947 28.036 228.231 27.848 227.583 27.472C226.943 27.096 226.435 26.584 226.059 25.936C225.691 25.288 225.507 24.576 225.507 23.8C225.507 23.024 225.691 22.312 226.059 21.664C226.435 21.016 226.947 20.504 227.595 20.128C228.243 19.752 228.963 19.564 229.755 19.564C230.547 19.564 231.263 19.748 231.903 20.116C232.551 20.484 233.059 20.992 233.427 21.64C233.795 22.28 233.979 22.992 233.979 23.776C233.979 24.56 233.791 25.28 233.415 25.936C233.039 26.584 232.527 27.096 231.879 27.472C231.231 27.848 230.515 28.036 229.731 28.036ZM229.731 27.376C230.395 27.376 230.995 27.216 231.531 26.896C232.075 26.576 232.503 26.144 232.815 25.6C233.127 25.048 233.283 24.44 233.283 23.776C233.283 23.112 233.131 22.512 232.827 21.976C232.523 21.432 232.103 21.004 231.567 20.692C231.031 20.38 230.427 20.224 229.755 20.224C229.083 20.224 228.475 20.384 227.931 20.704C227.387 21.016 226.959 21.444 226.647 21.988C226.343 22.532 226.191 23.136 226.191 23.8C226.191 24.464 226.343 25.068 226.647 25.612C226.959 26.156 227.383 26.588 227.919 26.908C228.463 27.22 229.067 27.376 229.731 27.376ZM229.863 26.248C229.375 26.248 228.939 26.144 228.555 25.936C228.171 25.728 227.871 25.44 227.655 25.072C227.439 24.696 227.331 24.272 227.331 23.8C227.331 23.328 227.439 22.908 227.655 22.54C227.871 22.164 228.171 21.872 228.555 21.664C228.939 21.456 229.375 21.352 229.863 21.352C230.311 21.352 230.707 21.448 231.051 21.64C231.403 21.824 231.675 22.076 231.867 22.396L230.991 22.972C230.743 22.572 230.363 22.372 229.851 22.372C229.459 22.372 229.131 22.504 228.867 22.768C228.611 23.024 228.483 23.368 228.483 23.8C228.483 24.232 228.611 24.58 228.867 24.844C229.131 25.1 229.459 25.228 229.851 25.228C230.363 25.228 230.743 25.028 230.991 24.628L231.867 25.18C231.675 25.516 231.403 25.78 231.051 25.972C230.707 26.156 230.311 26.248 229.863 26.248ZM244.434 26.68V28H238.242V26.956L241.578 23.788C241.954 23.428 242.206 23.116 242.334 22.852C242.47 22.58 242.538 22.312 242.538 22.048C242.538 21.656 242.406 21.356 242.142 21.148C241.878 20.94 241.49 20.836 240.978 20.836C240.122 20.836 239.466 21.128 239.01 21.712L237.918 20.872C238.246 20.432 238.686 20.092 239.238 19.852C239.798 19.604 240.422 19.48 241.11 19.48C242.022 19.48 242.75 19.696 243.294 20.128C243.838 20.56 244.11 21.148 244.11 21.892C244.11 22.348 244.014 22.776 243.822 23.176C243.63 23.576 243.262 24.032 242.718 24.544L240.474 26.68H244.434ZM248.803 28.12C248.131 28.12 247.531 27.952 247.003 27.616C246.475 27.272 246.059 26.776 245.755 26.128C245.451 25.472 245.299 24.696 245.299 23.8C245.299 22.904 245.451 22.132 245.755 21.484C246.059 20.828 246.475 20.332 247.003 19.996C247.531 19.652 248.131 19.48 248.803 19.48C249.475 19.48 250.075 19.652 250.603 19.996C251.139 20.332 251.559 20.828 251.863 21.484C252.167 22.132 252.319 22.904 252.319 23.8C252.319 24.696 252.167 25.472 251.863 26.128C251.559 26.776 251.139 27.272 250.603 27.616C250.075 27.952 249.475 28.12 248.803 28.12ZM248.803 26.764C249.403 26.764 249.875 26.516 250.219 26.02C250.571 25.524 250.747 24.784 250.747 23.8C250.747 22.816 250.571 22.076 250.219 21.58C249.875 21.084 249.403 20.836 248.803 20.836C248.211 20.836 247.739 21.084 247.387 21.58C247.043 22.076 246.871 22.816 246.871 23.8C246.871 24.784 247.043 25.524 247.387 26.02C247.739 26.516 248.211 26.764 248.803 26.764ZM259.399 26.68V28H253.207V26.956L256.543 23.788C256.919 23.428 257.171 23.116 257.299 22.852C257.435 22.58 257.503 22.312 257.503 22.048C257.503 21.656 257.371 21.356 257.107 21.148C256.843 20.94 256.455 20.836 255.943 20.836C255.087 20.836 254.431 21.128 253.975 21.712L252.883 20.872C253.211 20.432 253.651 20.092 254.203 19.852C254.763 19.604 255.387 19.48 256.075 19.48C256.987 19.48 257.715 19.696 258.259 20.128C258.803 20.56 259.075 21.148 259.075 21.892C259.075 22.348 258.979 22.776 258.787 23.176C258.595 23.576 258.227 24.032 257.683 24.544L255.439 26.68H259.399ZM266.383 26.68V28H260.191V26.956L263.527 23.788C263.903 23.428 264.155 23.116 264.283 22.852C264.419 22.58 264.487 22.312 264.487 22.048C264.487 21.656 264.355 21.356 264.091 21.148C263.827 20.94 263.439 20.836 262.927 20.836C262.071 20.836 261.415 21.128 260.959 21.712L259.867 20.872C260.195 20.432 260.635 20.092 261.187 19.852C261.747 19.604 262.371 19.48 263.059 19.48C263.971 19.48 264.699 19.696 265.243 20.128C265.787 20.56 266.059 21.148 266.059 21.892C266.059 22.348 265.963 22.776 265.771 23.176C265.579 23.576 265.211 24.032 264.667 24.544L262.423 26.68H266.383Z" fill="white"/>
</g>
<defs>
<filter id="filter0_d_56_343" x="144.568" y="19.4805" width="125.815" height="16.6387" filterUnits="userSpaceOnUse" color-interpolation-filters="sRGB">
<feFlood flood-opacity="0" result="BackgroundImageFix"/>
<feColorMatrix in="SourceAlpha" type="matrix" values="0 0 0 0 0 0 0 0 0 0 0 0 0 0 0 0 0 0 127 0" result="hardAlpha"/>
<feOffset dy="4"/>
<feGaussianBlur stdDeviation="2"/>
<feComposite in2="hardAlpha" operator="out"/>
<feColorMatrix type="matrix" values="0 0 0 0 0 0 0 0 0 0 0 0 0 0 0 0 0 0 0.25 0"/>
<feBlend mode="normal" in2="BackgroundImageFix" result="effect1_dropShadow_56_343"/>
<feBlend mode="normal" in="SourceGraphic" in2="effect1_dropShadow_56_343" result="shape"/>
</filter>
</defs>
</svg>
