<svg width="1000" height="1000" viewBox="0 0 1000 1000" fill="none" xmlns="http://www.w3.org/2000/svg">
<g filter="url(#filter0_d_40_312)">
<path d="M493.203 845.234C715.886 845.234 896.406 664.714 896.406 442.031C896.406 219.348 715.886 38.8281 493.203 38.8281C270.52 38.8281 90 219.348 90 442.031C90 664.714 270.52 845.234 493.203 845.234Z" fill="#B65721"/>
<path d="M416.719 288.359C415.782 288.359 414.766 288.125 413.829 288.047C397.344 287.109 392.969 268.359 395.704 258.047C412.579 193.438 404.219 136.016 376.563 62.6563C370.86 47.6563 393.594 43.75 403.516 47.7344C413.047 51.5625 421.875 65.3125 425.704 75.7032C448.594 137.656 455 202.734 436.094 272.344C433.594 281.719 426.094 288.594 416.719 288.359V288.359Z" fill="#FF7323"/>
<path d="M467.187 348.282C465.469 348.282 463.75 347.97 462.031 347.423C459.603 346.692 457.343 345.489 455.381 343.883C453.418 342.278 451.792 340.301 450.594 338.065C449.397 335.83 448.652 333.381 448.403 330.858C448.153 328.334 448.404 325.787 449.14 323.36C470.859 251.485 486.719 133.985 436.406 45.704C431.094 36.4072 444.609 30.3134 455.234 31.329C479.609 33.5165 493.828 70.0009 498.515 86.2509C520.547 162.11 513.359 263.517 486.094 334.532C482.969 342.892 475.625 348.517 467.187 348.282V348.282Z" fill="#FF7323"/>
<path d="M519.218 404.922C505.937 401.093 503.437 383.593 506.484 373.359C566.953 170.703 506.093 46.1716 505.625 44.8435C501.875 34.8435 534.687 21.1716 550.859 61.7185C553.203 67.5779 607.187 203.125 546.328 389.843C543.437 398.437 533.125 408.984 519.218 404.922V404.922Z" fill="#FF7323"/>
<path d="M175.156 707.031C169.531 700.39 162.5 689.843 171.406 683.906C186.172 673.984 236.875 657.89 277.422 602.89C283.75 594.296 294.453 590.312 303.75 595.625C313.047 600.859 317.188 613.281 311.016 621.953C261.797 691.328 201.875 710.078 199.453 711.484C196.484 713.203 180.781 713.671 175.156 707.031Z" fill="#FF7323"/>
<path d="M207.735 735.859C203.672 725.703 229.61 721.25 229.61 721.25C241.094 716.875 288.203 708.047 325.782 648.906C331.485 639.922 342.891 636.406 352.11 641.719C361.407 647.031 364.61 658.828 359.297 668.047C334.063 712.266 284.766 745.391 251.016 753.438C232.969 757.734 211.719 745.781 207.735 735.859V735.859Z" fill="#FF7323"/>
<path d="M270.86 793.75C258.906 787.422 255.391 775.859 262.969 773.359C307.735 758.906 356.641 721.563 380.391 686.406C386.328 677.578 398.36 675.234 407.188 681.25C416.016 687.187 418.282 699.219 412.344 708.047C384.453 750.078 356.016 771.328 309.61 791.484C300.782 795.312 282.031 799.687 270.86 793.75V793.75Z" fill="#FF7323"/>
<path d="M328.047 811.015C357.344 797.578 406.172 769.765 434.453 722.343C439.922 713.203 451.797 710.156 460.937 715.625C470.078 721.093 473.125 732.968 467.656 742.109C444.844 780.39 413.125 810.624 364.765 827.656C341.25 836.015 318.359 815.546 328.047 811.015V811.015Z" fill="#FF7323"/>
<path d="M148.125 651.25C83.0471 574.532 71.5628 474.375 88.2815 375.157C92.1096 352.344 100.469 338.125 108.75 338.203C119.453 338.36 129.766 375.078 126.641 395C112.578 484.61 138.516 572.5 194.61 640.86C197.969 645 193.203 658.985 181.25 664.219C169.297 669.375 155.938 660.469 148.125 651.25V651.25Z" fill="#FF7323"/>
<path d="M197.734 608.047C168.281 580.391 143.906 493.828 143.828 452.656C143.828 441.953 143.906 426.562 154.609 426.562C154.609 426.562 178.516 430.234 182.5 452.578C188.203 484.766 206.016 558.672 235.703 596.094C242.344 604.453 217.813 626.875 197.734 608.047V608.047Z" fill="#FF7323"/>
<path d="M518.985 860.156C485 861.874 432.813 854.765 415.703 831.328C409.375 822.734 420.703 814.609 431.016 817.343C493.204 834.14 536.25 843.906 615.704 805.312C631.797 797.499 649.61 805.703 641.641 816.953C630.469 832.812 580.079 857.421 518.985 860.156V860.156Z" fill="#E86921"/>
<path d="M455.234 790.077C449.218 781.249 467.109 766.483 477.734 768.202C494.531 770.858 506.171 773.827 517.89 774.296C529.921 774.765 544.687 770.39 549.218 770.39C559.921 770.39 585.546 780.937 578.984 789.374C558.671 815.468 474.218 817.812 455.234 790.077V790.077Z" fill="#E86921"/>
<path d="M675.625 348.202C665.86 349.374 656.641 342.89 654.531 333.124C652.266 322.734 658.906 312.421 669.297 310.156C715.313 300.156 775.313 265.859 810.313 210.781C818.672 197.577 844.688 222.343 830.703 243.281C788.672 306.484 733.594 335.781 677.5 347.89C676.875 347.968 676.25 348.124 675.625 348.202Z" fill="#FF7323"/>
<path d="M662.266 418.126C657.25 418.727 652.199 417.337 648.196 414.255C644.194 411.173 641.56 406.644 640.859 401.641C639.375 391.095 646.641 381.251 657.266 379.766C732.969 368.907 815.703 311.173 843.515 253.36C848.125 243.751 880.078 272.11 857.265 303.751C816.562 360.079 736.719 407.423 662.812 417.97C662.578 418.126 662.422 418.126 662.266 418.126V418.126Z" fill="#FF7323"/>
<path d="M669.219 479.532C663.047 480.235 656.953 480.782 651.094 481.016C640.469 481.485 631.407 473.204 630.938 462.5C630.469 451.797 638.75 442.735 649.453 442.422C726.875 439.141 839.453 387.11 874.375 322.344C879.453 312.969 911.797 339.532 884.297 374.375C863.672 400.547 831.172 421.954 793.985 440.625C753.672 460.938 708.36 474.922 669.219 479.532V479.532Z" fill="#FF7323"/>
<path d="M730.391 532.344C724.922 532.969 719.844 533.282 715.313 533.125C712.776 533.072 710.275 532.517 707.954 531.493C705.633 530.469 703.537 528.996 701.787 527.159C700.037 525.322 698.668 523.157 697.758 520.789C696.848 518.421 696.415 515.896 696.485 513.36C696.538 510.823 697.093 508.322 698.117 506.001C699.141 503.68 700.614 501.584 702.451 499.834C704.288 498.084 706.453 496.715 708.821 495.805C711.189 494.895 713.714 494.462 716.25 494.532C751.954 495.313 848.36 457.813 889.297 393.516C895.079 384.532 916.407 418.125 893.36 444.375C843.516 501.172 777.5 526.797 730.391 532.344V532.344Z" fill="#FF7323"/>
<path d="M581.406 455.547C579.062 455.547 576.719 455.156 574.375 454.219C564.453 450.391 559.922 439.297 563.359 429.219C603.125 312.578 617.031 175.078 567.031 48.4375C563.125 38.5156 601.25 37.1875 611.328 66.7969C658.828 206.953 644.531 320.391 599.375 443.203C596.562 450.938 589.14 455.547 581.406 455.547V455.547Z" fill="#FF7323"/>
<path d="M727.188 232.891C717.266 220.469 679.297 190.469 664.61 185.313C654.531 181.719 651.016 147.031 661.719 147.031C696.875 146.953 745.078 181.719 759.453 215C770.078 239.61 747.5 258.281 727.188 232.891Z" fill="#E86921"/>
<path d="M776.25 201.64C741.641 155.39 713.828 124.999 649.766 102.499C635 97.2649 621.016 79.1399 630 73.3587C646.641 62.5774 677.656 75.7024 686.328 79.8431C720.234 96.0149 751.641 113.359 778.047 144.062C792.969 161.406 810.469 197.577 803.359 205.468C792.578 217.421 780.078 206.718 776.25 201.64V201.64Z" fill="#E86921"/>
<path d="M785.937 585.547C780.312 576.484 811.64 563.437 814.453 530.312C815.39 519.687 847.734 507.187 848.437 517.812C851.093 559.219 836.484 574.297 820.234 586.094C802.5 598.828 789.531 591.484 785.937 585.547Z" fill="#E86921"/>
<path d="M850.312 613.828C835.859 610.547 841.64 595 848.359 586.719C873.984 555.313 876.328 538.516 873.672 504.297C872.344 487.422 886.172 472.344 892.734 480.703C901.25 491.641 907.656 523.594 901.562 549.844C887.187 612.266 854.844 614.844 850.312 613.828V613.828Z" fill="#E86921"/>
<path d="M703.828 251.094C706.172 254.141 708.438 257.422 709.375 261.094C710.391 264.844 709.922 269.141 707.422 272.032C705.703 273.985 703.36 275.157 701.016 276.251C696.563 278.36 692.11 280.469 687.266 281.329C682.422 282.188 677.188 281.641 673.203 278.829C668.203 275.235 666.172 268.829 664.844 262.891C662.578 253.204 661.172 243.36 660.469 233.438C660.313 231.094 660.235 228.516 661.329 226.407C667.969 213.907 699.297 245.391 703.828 251.094Z" fill="#E86921"/>
<path d="M727.188 766.563C681.25 758.516 635.156 740.547 590.078 720.078C579.687 715.078 569.687 709.844 559.687 704.531C543.125 713.906 525.313 721.484 506.719 727.109C556.016 754.688 596.953 769.609 626.953 778.516C678.281 793.828 699.297 791.016 703.672 790.391C720.547 787.812 737.656 768.672 727.188 766.563Z" fill="#FF7323"/>
<path d="M150.391 283.515C145.313 274.14 137.734 250.859 137.734 250.859C124.297 249.218 113.281 266.562 118.203 296.015C121.094 312.968 197.578 505.703 423.672 673.281C453.359 695.312 481.094 712.89 506.641 727.187C506.641 727.187 524.609 739.062 549.141 726.406C569.922 715.703 559.609 704.531 559.609 704.531C377.188 608.437 252.266 470.624 150.391 283.515V283.515Z" fill="#FF8E3C"/>
<path d="M778.516 724.141C723.281 706.484 669.688 685.391 618.438 660C608.047 670.937 596.641 680.859 584.375 689.766C595.234 695.859 606.016 701.719 616.719 707.422C650.391 725.391 785.078 783.984 778.516 724.141Z" fill="#FF7323"/>
<path d="M618.359 660C435.547 569.453 278.203 427.578 178.828 188.047C152.656 193.828 155.39 224.531 159.14 234.531C247.968 470.859 427.89 602.031 584.297 689.766C584.297 689.766 608.984 703.359 625.312 682.5C635.078 669.922 618.359 660 618.359 660Z" fill="#FF8E3C"/>
<path d="M817.813 673.75C759.922 657.266 705.937 634.375 655.859 607.344C649.486 619.712 642.008 631.479 633.516 642.5C673.516 662.812 715.781 680 760.156 692.891C816.25 709.063 828.359 675.547 817.813 673.75Z" fill="#FF7323"/>
<path d="M226.875 139.296C220.469 125.781 193.437 146.327 198.125 167.656C227.266 273.749 361.875 512.499 633.515 642.499C633.515 642.499 655.234 652.031 663.515 633.906C671.797 615.702 655.937 607.343 655.937 607.343C370.547 455.546 262.187 238.124 226.875 139.296V139.296Z" fill="#FF8E3C"/>
<path d="M856.484 624.922C791.172 600.859 732.812 574.844 679.844 545.547C679.453 548.594 678.984 551.641 678.281 554.453C675.547 566.25 671.875 577.578 667.5 588.437C713.672 612.109 763.359 632.344 816.953 649.141C859.766 661.094 866.484 628.75 856.484 624.922Z" fill="#FF7323"/>
<path d="M679.843 545.547C486.718 439.375 389.14 318.047 281.562 108.594C268.437 87.5003 236.484 106.797 248.906 129.219C343.749 334.922 444.999 462.578 667.499 588.516C667.499 588.516 684.531 595.156 691.093 575.313C695.234 562.813 691.327 551.797 679.843 545.547Z" fill="#FF8E3C"/>
<path d="M550.937 968.75C529.297 968.75 507.344 968.203 485.39 966.953C350 959.453 180.937 912.891 129.844 828.125C113.828 801.641 65.156 720.938 164.453 557.657C220.156 466.094 353.984 270.469 317.344 83.594C317.344 83.594 312.265 65.6253 328.281 58.8284C351.953 48.8284 355.781 69.1409 355.781 69.1409C402.578 287.188 262.734 485.625 204.218 581.797C128.359 706.563 148.203 768.36 169.687 803.985C194.531 845.078 299.765 910 487.969 920.391C724.531 933.438 869.297 874.297 884.14 853.125C884.687 845.157 879.531 835.782 790.781 833.907C766.172 833.36 768.437 797.422 780.781 796.016C816.875 791.797 884.766 791.797 915.859 814.297C931.562 825.703 938.125 842.5 931.953 862.032C913.437 920.547 748.672 968.75 550.937 968.75V968.75Z" fill="#FF7F23"/>
</g>
<defs>
<filter id="filter0_d_40_312" x="-10" y="-6" width="1020" height="1020" filterUnits="userSpaceOnUse" color-interpolation-filters="sRGB">
<feFlood flood-opacity="0" result="BackgroundImageFix"/>
<feColorMatrix in="SourceAlpha" type="matrix" values="0 0 0 0 0 0 0 0 0 0 0 0 0 0 0 0 0 0 127 0" result="hardAlpha"/>
<feOffset dy="4"/>
<feGaussianBlur stdDeviation="5"/>
<feComposite in2="hardAlpha" operator="out"/>
<feColorMatrix type="matrix" values="0 0 0 0 0 0 0 0 0 0 0 0 0 0 0 0 0 0 0.25 0"/>
<feBlend mode="normal" in2="BackgroundImageFix" result="effect1_dropShadow_40_312"/>
<feBlend mode="normal" in="SourceGraphic" in2="effect1_dropShadow_40_312" result="shape"/>
</filter>
</defs>
</svg>
